<mxfile host="Electron" modified="2024-05-24T13:58:59.863Z" agent="Mozilla/5.0 (Windows NT 10.0; Win64; x64) AppleWebKit/537.36 (KHTML, like Gecko) draw.io/24.4.0 Chrome/120.0.6099.109 Electron/28.1.0 Safari/537.36" etag="kqcIDUp8ApF-iHbzQpmV" version="24.4.0" type="device">
  <diagram id="C5RBs43oDa-KdzZeNtuy" name="Page-1">
    <mxGraphModel dx="1219" dy="823" grid="1" gridSize="10" guides="1" tooltips="1" connect="1" arrows="1" fold="1" page="1" pageScale="1" pageWidth="827" pageHeight="1169" math="0" shadow="0">
      <root>
        <mxCell id="WIyWlLk6GJQsqaUBKTNV-0" />
        <mxCell id="WIyWlLk6GJQsqaUBKTNV-1" parent="WIyWlLk6GJQsqaUBKTNV-0" />
        <mxCell id="zkfFHV4jXpPFQw0GAbJ--0" value="Musik-App (Home)" style="swimlane;fontStyle=1;align=center;verticalAlign=top;childLayout=stackLayout;horizontal=1;startSize=26;horizontalStack=0;resizeParent=1;resizeLast=0;collapsible=1;marginBottom=0;rounded=0;shadow=0;strokeWidth=1;movable=1;resizable=1;rotatable=1;deletable=1;editable=1;locked=0;connectable=1;swimlaneBody=1;" parent="WIyWlLk6GJQsqaUBKTNV-1" vertex="1">
          <mxGeometry x="60" y="30" width="210" height="174" as="geometry">
            <mxRectangle x="230" y="140" width="160" height="26" as="alternateBounds" />
          </mxGeometry>
        </mxCell>
        <mxCell id="zkfFHV4jXpPFQw0GAbJ--1" value="- suchfunktion : Suche[]" style="text;align=left;verticalAlign=top;spacingLeft=4;spacingRight=4;overflow=hidden;rotatable=0;points=[[0,0.5],[1,0.5]];portConstraint=eastwest;" parent="zkfFHV4jXpPFQw0GAbJ--0" vertex="1">
          <mxGeometry y="26" width="210" height="26" as="geometry" />
        </mxCell>
        <mxCell id="zkfFHV4jXpPFQw0GAbJ--2" value="- playlistauswahl : Playlist-Manager[]" style="text;align=left;verticalAlign=top;spacingLeft=4;spacingRight=4;overflow=hidden;rotatable=0;points=[[0,0.5],[1,0.5]];portConstraint=eastwest;rounded=0;shadow=0;html=0;" parent="zkfFHV4jXpPFQw0GAbJ--0" vertex="1">
          <mxGeometry y="52" width="210" height="26" as="geometry" />
        </mxCell>
        <mxCell id="0k8QkDTSyGL8Smih6Lt8-89" value="- songwiedergabe : Wiedergabe[]" style="text;align=left;verticalAlign=top;spacingLeft=4;spacingRight=4;overflow=hidden;rotatable=0;points=[[0,0.5],[1,0.5]];portConstraint=eastwest;rounded=0;shadow=0;html=0;" parent="zkfFHV4jXpPFQw0GAbJ--0" vertex="1">
          <mxGeometry y="78" width="210" height="26" as="geometry" />
        </mxCell>
        <mxCell id="ZoeE4J0sLTA_Nj1HPFCk-19" value="- bibliothekbearbeiten : Bibliothek[]" style="text;align=left;verticalAlign=top;spacingLeft=4;spacingRight=4;overflow=hidden;rotatable=0;points=[[0,0.5],[1,0.5]];portConstraint=eastwest;rounded=0;shadow=0;html=0;" vertex="1" parent="zkfFHV4jXpPFQw0GAbJ--0">
          <mxGeometry y="104" width="210" height="26" as="geometry" />
        </mxCell>
        <mxCell id="zkfFHV4jXpPFQw0GAbJ--6" value="Wiedergabe" style="swimlane;fontStyle=1;align=center;verticalAlign=top;childLayout=stackLayout;horizontal=1;startSize=26;horizontalStack=0;resizeParent=1;resizeLast=0;collapsible=1;marginBottom=0;rounded=0;shadow=0;strokeWidth=1;" parent="WIyWlLk6GJQsqaUBKTNV-1" vertex="1">
          <mxGeometry x="660" y="330" width="160" height="450" as="geometry">
            <mxRectangle x="130" y="380" width="160" height="26" as="alternateBounds" />
          </mxGeometry>
        </mxCell>
        <mxCell id="ZoeE4J0sLTA_Nj1HPFCk-2" value="- titel : String" style="text;align=left;verticalAlign=top;spacingLeft=4;spacingRight=4;overflow=hidden;rotatable=0;points=[[0,0.5],[1,0.5]];portConstraint=eastwest;rounded=0;shadow=0;html=0;" vertex="1" parent="zkfFHV4jXpPFQw0GAbJ--6">
          <mxGeometry y="26" width="160" height="26" as="geometry" />
        </mxCell>
        <mxCell id="ZoeE4J0sLTA_Nj1HPFCk-11" value="- songtext : String" style="text;align=left;verticalAlign=top;spacingLeft=4;spacingRight=4;overflow=hidden;rotatable=0;points=[[0,0.5],[1,0.5]];portConstraint=eastwest;rounded=0;shadow=0;html=0;" vertex="1" parent="zkfFHV4jXpPFQw0GAbJ--6">
          <mxGeometry y="52" width="160" height="26" as="geometry" />
        </mxCell>
        <mxCell id="ZoeE4J0sLTA_Nj1HPFCk-0" value="- startstoppAnzeige : String" style="text;align=left;verticalAlign=top;spacingLeft=4;spacingRight=4;overflow=hidden;rotatable=0;points=[[0,0.5],[1,0.5]];portConstraint=eastwest;rounded=0;shadow=0;html=0;" vertex="1" parent="zkfFHV4jXpPFQw0GAbJ--6">
          <mxGeometry y="78" width="160" height="26" as="geometry" />
        </mxCell>
        <mxCell id="ZoeE4J0sLTA_Nj1HPFCk-8" value="- Reihenfolgeart : Stirng" style="text;align=left;verticalAlign=top;spacingLeft=4;spacingRight=4;overflow=hidden;rotatable=0;points=[[0,0.5],[1,0.5]];portConstraint=eastwest;rounded=0;shadow=0;html=0;" vertex="1" parent="zkfFHV4jXpPFQw0GAbJ--6">
          <mxGeometry y="104" width="160" height="26" as="geometry" />
        </mxCell>
        <mxCell id="zkfFHV4jXpPFQw0GAbJ--9" value="" style="line;html=1;strokeWidth=1;align=left;verticalAlign=middle;spacingTop=-1;spacingLeft=3;spacingRight=3;rotatable=0;labelPosition=right;points=[];portConstraint=eastwest;" parent="zkfFHV4jXpPFQw0GAbJ--6" vertex="1">
          <mxGeometry y="130" width="160" height="34" as="geometry" />
        </mxCell>
        <mxCell id="ZoeE4J0sLTA_Nj1HPFCk-1" value="+ abspielen(song : String)" style="text;align=left;verticalAlign=top;spacingLeft=4;spacingRight=4;overflow=hidden;rotatable=0;points=[[0,0.5],[1,0.5]];portConstraint=eastwest;rounded=0;shadow=0;html=0;" vertex="1" parent="zkfFHV4jXpPFQw0GAbJ--6">
          <mxGeometry y="164" width="160" height="26" as="geometry" />
        </mxCell>
        <mxCell id="0k8QkDTSyGL8Smih6Lt8-90" value="- vorherigesLied()" style="text;align=left;verticalAlign=top;spacingLeft=4;spacingRight=4;overflow=hidden;rotatable=0;points=[[0,0.5],[1,0.5]];portConstraint=eastwest;rounded=0;shadow=0;html=0;" parent="zkfFHV4jXpPFQw0GAbJ--6" vertex="1">
          <mxGeometry y="190" width="160" height="26" as="geometry" />
        </mxCell>
        <mxCell id="0k8QkDTSyGL8Smih6Lt8-15" value="- vonvorne()" style="text;align=left;verticalAlign=top;spacingLeft=4;spacingRight=4;overflow=hidden;rotatable=0;points=[[0,0.5],[1,0.5]];portConstraint=eastwest;rounded=0;shadow=0;html=0;" parent="zkfFHV4jXpPFQw0GAbJ--6" vertex="1">
          <mxGeometry y="216" width="160" height="26" as="geometry" />
        </mxCell>
        <mxCell id="0k8QkDTSyGL8Smih6Lt8-91" value="- überspringen()" style="text;align=left;verticalAlign=top;spacingLeft=4;spacingRight=4;overflow=hidden;rotatable=0;points=[[0,0.5],[1,0.5]];portConstraint=eastwest;rounded=0;shadow=0;html=0;" parent="zkfFHV4jXpPFQw0GAbJ--6" vertex="1">
          <mxGeometry y="242" width="160" height="26" as="geometry" />
        </mxCell>
        <mxCell id="0k8QkDTSyGL8Smih6Lt8-13" value="- stoppen()" style="text;align=left;verticalAlign=top;spacingLeft=4;spacingRight=4;overflow=hidden;rotatable=0;points=[[0,0.5],[1,0.5]];portConstraint=eastwest;rounded=0;shadow=0;html=0;" parent="zkfFHV4jXpPFQw0GAbJ--6" vertex="1">
          <mxGeometry y="268" width="160" height="26" as="geometry" />
        </mxCell>
        <mxCell id="0k8QkDTSyGL8Smih6Lt8-14" value="- fortsetzten()" style="text;align=left;verticalAlign=top;spacingLeft=4;spacingRight=4;overflow=hidden;rotatable=0;points=[[0,0.5],[1,0.5]];portConstraint=eastwest;rounded=0;shadow=0;html=0;" parent="zkfFHV4jXpPFQw0GAbJ--6" vertex="1">
          <mxGeometry y="294" width="160" height="26" as="geometry" />
        </mxCell>
        <mxCell id="ZoeE4J0sLTA_Nj1HPFCk-4" value="- liedtextanzeigen()" style="text;align=left;verticalAlign=top;spacingLeft=4;spacingRight=4;overflow=hidden;rotatable=0;points=[[0,0.5],[1,0.5]];portConstraint=eastwest;rounded=0;shadow=0;html=0;" vertex="1" parent="zkfFHV4jXpPFQw0GAbJ--6">
          <mxGeometry y="320" width="160" height="26" as="geometry" />
        </mxCell>
        <mxCell id="ZoeE4J0sLTA_Nj1HPFCk-5" value="- liedtextausblenden()" style="text;align=left;verticalAlign=top;spacingLeft=4;spacingRight=4;overflow=hidden;rotatable=0;points=[[0,0.5],[1,0.5]];portConstraint=eastwest;rounded=0;shadow=0;html=0;" vertex="1" parent="zkfFHV4jXpPFQw0GAbJ--6">
          <mxGeometry y="346" width="160" height="26" as="geometry" />
        </mxCell>
        <mxCell id="ZoeE4J0sLTA_Nj1HPFCk-6" value="- zufallswiedergabe()" style="text;align=left;verticalAlign=top;spacingLeft=4;spacingRight=4;overflow=hidden;rotatable=0;points=[[0,0.5],[1,0.5]];portConstraint=eastwest;rounded=0;shadow=0;html=0;" vertex="1" parent="zkfFHV4jXpPFQw0GAbJ--6">
          <mxGeometry y="372" width="160" height="26" as="geometry" />
        </mxCell>
        <mxCell id="ZoeE4J0sLTA_Nj1HPFCk-7" value="- geordnetewiedergabe()" style="text;align=left;verticalAlign=top;spacingLeft=4;spacingRight=4;overflow=hidden;rotatable=0;points=[[0,0.5],[1,0.5]];portConstraint=eastwest;rounded=0;shadow=0;html=0;" vertex="1" parent="zkfFHV4jXpPFQw0GAbJ--6">
          <mxGeometry y="398" width="160" height="26" as="geometry" />
        </mxCell>
        <mxCell id="0k8QkDTSyGL8Smih6Lt8-82" value="+ zurückzuHome()" style="text;strokeColor=none;fillColor=none;align=left;verticalAlign=top;spacingLeft=4;spacingRight=4;overflow=hidden;rotatable=0;points=[[0,0.5],[1,0.5]];portConstraint=eastwest;whiteSpace=wrap;html=1;" parent="zkfFHV4jXpPFQw0GAbJ--6" vertex="1">
          <mxGeometry y="424" width="160" height="26" as="geometry" />
        </mxCell>
        <mxCell id="zkfFHV4jXpPFQw0GAbJ--13" value="Playlist-Manager" style="swimlane;fontStyle=1;align=center;verticalAlign=top;childLayout=stackLayout;horizontal=1;startSize=26;horizontalStack=0;resizeParent=1;resizeLast=0;collapsible=1;marginBottom=0;rounded=0;shadow=0;strokeWidth=1;" parent="WIyWlLk6GJQsqaUBKTNV-1" vertex="1">
          <mxGeometry x="40" y="370" width="335" height="280" as="geometry">
            <mxRectangle x="340" y="380" width="170" height="26" as="alternateBounds" />
          </mxGeometry>
        </mxCell>
        <mxCell id="zkfFHV4jXpPFQw0GAbJ--14" value="+ Playlists : Playlist[0..*]" style="text;align=left;verticalAlign=top;spacingLeft=4;spacingRight=4;overflow=hidden;rotatable=0;points=[[0,0.5],[1,0.5]];portConstraint=eastwest;" parent="zkfFHV4jXpPFQw0GAbJ--13" vertex="1">
          <mxGeometry y="26" width="335" height="24" as="geometry" />
        </mxCell>
        <mxCell id="ZoeE4J0sLTA_Nj1HPFCk-25" value="+ Favoriten : Playlists[0..*]" style="text;align=left;verticalAlign=top;spacingLeft=4;spacingRight=4;overflow=hidden;rotatable=0;points=[[0,0.5],[1,0.5]];portConstraint=eastwest;" vertex="1" parent="zkfFHV4jXpPFQw0GAbJ--13">
          <mxGeometry y="50" width="335" height="24" as="geometry" />
        </mxCell>
        <mxCell id="ZoeE4J0sLTA_Nj1HPFCk-22" value="- löschbestätigung : String" style="text;align=left;verticalAlign=top;spacingLeft=4;spacingRight=4;overflow=hidden;rotatable=0;points=[[0,0.5],[1,0.5]];portConstraint=eastwest;rounded=0;shadow=0;html=0;" vertex="1" parent="zkfFHV4jXpPFQw0GAbJ--13">
          <mxGeometry y="74" width="335" height="26" as="geometry" />
        </mxCell>
        <mxCell id="ZoeE4J0sLTA_Nj1HPFCk-23" value="- löschabfrage : String" style="text;align=left;verticalAlign=top;spacingLeft=4;spacingRight=4;overflow=hidden;rotatable=0;points=[[0,0.5],[1,0.5]];portConstraint=eastwest;rounded=0;shadow=0;html=0;" vertex="1" parent="zkfFHV4jXpPFQw0GAbJ--13">
          <mxGeometry y="100" width="335" height="26" as="geometry" />
        </mxCell>
        <mxCell id="zkfFHV4jXpPFQw0GAbJ--15" value="" style="line;html=1;strokeWidth=1;align=left;verticalAlign=middle;spacingTop=-1;spacingLeft=3;spacingRight=3;rotatable=0;labelPosition=right;points=[];portConstraint=eastwest;" parent="zkfFHV4jXpPFQw0GAbJ--13" vertex="1">
          <mxGeometry y="126" width="335" height="8" as="geometry" />
        </mxCell>
        <mxCell id="0k8QkDTSyGL8Smih6Lt8-38" value="+ playlisterstellen(name : String)" style="text;align=left;verticalAlign=top;spacingLeft=4;spacingRight=4;overflow=hidden;rotatable=0;points=[[0,0.5],[1,0.5]];portConstraint=eastwest;" parent="zkfFHV4jXpPFQw0GAbJ--13" vertex="1">
          <mxGeometry y="134" width="335" height="24" as="geometry" />
        </mxCell>
        <mxCell id="0k8QkDTSyGL8Smih6Lt8-39" value="+ playlistumbennenen(playlist : Playlist, neuerName : String)" style="text;align=left;verticalAlign=top;spacingLeft=4;spacingRight=4;overflow=hidden;rotatable=0;points=[[0,0.5],[1,0.5]];portConstraint=eastwest;" parent="zkfFHV4jXpPFQw0GAbJ--13" vertex="1">
          <mxGeometry y="158" width="335" height="24" as="geometry" />
        </mxCell>
        <mxCell id="0k8QkDTSyGL8Smih6Lt8-64" value="+ playlistlöschen(playlist : Playlist)" style="text;align=left;verticalAlign=top;spacingLeft=4;spacingRight=4;overflow=hidden;rotatable=0;points=[[0,0.5],[1,0.5]];portConstraint=eastwest;" parent="zkfFHV4jXpPFQw0GAbJ--13" vertex="1">
          <mxGeometry y="182" width="335" height="24" as="geometry" />
        </mxCell>
        <mxCell id="ZoeE4J0sLTA_Nj1HPFCk-34" value="+ playlistzufavoritenhinzufügen(playlist : Playlist)" style="text;align=left;verticalAlign=top;spacingLeft=4;spacingRight=4;overflow=hidden;rotatable=0;points=[[0,0.5],[1,0.5]];portConstraint=eastwest;" vertex="1" parent="zkfFHV4jXpPFQw0GAbJ--13">
          <mxGeometry y="206" width="335" height="24" as="geometry" />
        </mxCell>
        <mxCell id="ZoeE4J0sLTA_Nj1HPFCk-43" value="+ playlistvonfavoritenentfernen(playlist : Playlist)" style="text;align=left;verticalAlign=top;spacingLeft=4;spacingRight=4;overflow=hidden;rotatable=0;points=[[0,0.5],[1,0.5]];portConstraint=eastwest;" vertex="1" parent="zkfFHV4jXpPFQw0GAbJ--13">
          <mxGeometry y="230" width="335" height="24" as="geometry" />
        </mxCell>
        <mxCell id="0k8QkDTSyGL8Smih6Lt8-81" value="+ zurückzuHome()" style="text;strokeColor=none;fillColor=none;align=left;verticalAlign=top;spacingLeft=4;spacingRight=4;overflow=hidden;rotatable=0;points=[[0,0.5],[1,0.5]];portConstraint=eastwest;whiteSpace=wrap;html=1;" parent="zkfFHV4jXpPFQw0GAbJ--13" vertex="1">
          <mxGeometry y="254" width="335" height="26" as="geometry" />
        </mxCell>
        <mxCell id="0k8QkDTSyGL8Smih6Lt8-18" value="" style="endArrow=diamond;startArrow=none;html=1;rounded=0;exitX=0.31;exitY=-0.006;exitDx=0;exitDy=0;exitPerimeter=0;edgeStyle=orthogonalEdgeStyle;entryX=0;entryY=0.5;entryDx=0;entryDy=0;startFill=0;endFill=1;" parent="WIyWlLk6GJQsqaUBKTNV-1" source="zkfFHV4jXpPFQw0GAbJ--13" target="zkfFHV4jXpPFQw0GAbJ--2" edge="1">
          <mxGeometry width="50" height="50" relative="1" as="geometry">
            <mxPoint x="550" y="290" as="sourcePoint" />
            <mxPoint x="320" y="270" as="targetPoint" />
            <Array as="points">
              <mxPoint x="144" y="280" />
              <mxPoint x="20" y="280" />
              <mxPoint x="20" y="95" />
            </Array>
          </mxGeometry>
        </mxCell>
        <mxCell id="0k8QkDTSyGL8Smih6Lt8-40" value="Playlist" style="swimlane;fontStyle=1;align=center;verticalAlign=top;childLayout=stackLayout;horizontal=1;startSize=26;horizontalStack=0;resizeParent=1;resizeLast=0;collapsible=1;marginBottom=0;rounded=0;shadow=0;strokeWidth=1;" parent="WIyWlLk6GJQsqaUBKTNV-1" vertex="1">
          <mxGeometry x="30" y="760" width="210" height="180" as="geometry">
            <mxRectangle x="340" y="380" width="170" height="26" as="alternateBounds" />
          </mxGeometry>
        </mxCell>
        <mxCell id="0k8QkDTSyGL8Smih6Lt8-41" value="+ playlistname : String" style="text;align=left;verticalAlign=top;spacingLeft=4;spacingRight=4;overflow=hidden;rotatable=0;points=[[0,0.5],[1,0.5]];portConstraint=eastwest;" parent="0k8QkDTSyGL8Smih6Lt8-40" vertex="1">
          <mxGeometry y="26" width="210" height="24" as="geometry" />
        </mxCell>
        <mxCell id="0k8QkDTSyGL8Smih6Lt8-45" value="+ songs : Song[0..*]" style="text;align=left;verticalAlign=top;spacingLeft=4;spacingRight=4;overflow=hidden;rotatable=0;points=[[0,0.5],[1,0.5]];portConstraint=eastwest;" parent="0k8QkDTSyGL8Smih6Lt8-40" vertex="1">
          <mxGeometry y="50" width="210" height="24" as="geometry" />
        </mxCell>
        <mxCell id="ZoeE4J0sLTA_Nj1HPFCk-24" value="- löschabfrage : String" style="text;align=left;verticalAlign=top;spacingLeft=4;spacingRight=4;overflow=hidden;rotatable=0;points=[[0,0.5],[1,0.5]];portConstraint=eastwest;rounded=0;shadow=0;html=0;" vertex="1" parent="0k8QkDTSyGL8Smih6Lt8-40">
          <mxGeometry y="74" width="210" height="26" as="geometry" />
        </mxCell>
        <mxCell id="0k8QkDTSyGL8Smih6Lt8-42" value="" style="line;html=1;strokeWidth=1;align=left;verticalAlign=middle;spacingTop=-1;spacingLeft=3;spacingRight=3;rotatable=0;labelPosition=right;points=[];portConstraint=eastwest;" parent="0k8QkDTSyGL8Smih6Lt8-40" vertex="1">
          <mxGeometry y="100" width="210" height="8" as="geometry" />
        </mxCell>
        <mxCell id="0k8QkDTSyGL8Smih6Lt8-43" value="- hinzufügen(titel : String)" style="text;align=left;verticalAlign=top;spacingLeft=4;spacingRight=4;overflow=hidden;rotatable=0;points=[[0,0.5],[1,0.5]];portConstraint=eastwest;" parent="0k8QkDTSyGL8Smih6Lt8-40" vertex="1">
          <mxGeometry y="108" width="210" height="24" as="geometry" />
        </mxCell>
        <mxCell id="0k8QkDTSyGL8Smih6Lt8-44" value="- entfernen(song : Song)" style="text;align=left;verticalAlign=top;spacingLeft=4;spacingRight=4;overflow=hidden;rotatable=0;points=[[0,0.5],[1,0.5]];portConstraint=eastwest;" parent="0k8QkDTSyGL8Smih6Lt8-40" vertex="1">
          <mxGeometry y="132" width="210" height="24" as="geometry" />
        </mxCell>
        <mxCell id="0k8QkDTSyGL8Smih6Lt8-73" value="Suche" style="swimlane;fontStyle=1;align=center;verticalAlign=top;childLayout=stackLayout;horizontal=1;startSize=26;horizontalStack=0;resizeParent=1;resizeParentMax=0;resizeLast=0;collapsible=1;marginBottom=0;whiteSpace=wrap;html=1;" parent="WIyWlLk6GJQsqaUBKTNV-1" vertex="1">
          <mxGeometry x="500" y="10" width="270" height="216" as="geometry" />
        </mxCell>
        <mxCell id="ZoeE4J0sLTA_Nj1HPFCk-3" value="- fehlermeldung : String" style="text;align=left;verticalAlign=top;spacingLeft=4;spacingRight=4;overflow=hidden;rotatable=0;points=[[0,0.5],[1,0.5]];portConstraint=eastwest;rounded=0;shadow=0;html=0;" vertex="1" parent="0k8QkDTSyGL8Smih6Lt8-73">
          <mxGeometry y="26" width="270" height="26" as="geometry" />
        </mxCell>
        <mxCell id="0k8QkDTSyGL8Smih6Lt8-75" value="" style="line;strokeWidth=1;fillColor=none;align=left;verticalAlign=middle;spacingTop=-1;spacingLeft=3;spacingRight=3;rotatable=0;labelPosition=right;points=[];portConstraint=eastwest;strokeColor=inherit;" parent="0k8QkDTSyGL8Smih6Lt8-73" vertex="1">
          <mxGeometry y="52" width="270" height="8" as="geometry" />
        </mxCell>
        <mxCell id="0k8QkDTSyGL8Smih6Lt8-76" value="- sucheTitel(text : String) : String" style="text;strokeColor=none;fillColor=none;align=left;verticalAlign=top;spacingLeft=4;spacingRight=4;overflow=hidden;rotatable=0;points=[[0,0.5],[1,0.5]];portConstraint=eastwest;whiteSpace=wrap;html=1;" parent="0k8QkDTSyGL8Smih6Lt8-73" vertex="1">
          <mxGeometry y="60" width="270" height="26" as="geometry" />
        </mxCell>
        <mxCell id="0k8QkDTSyGL8Smih6Lt8-86" value="- sucheKünstler(text : String) : String" style="text;strokeColor=none;fillColor=none;align=left;verticalAlign=top;spacingLeft=4;spacingRight=4;overflow=hidden;rotatable=0;points=[[0,0.5],[1,0.5]];portConstraint=eastwest;whiteSpace=wrap;html=1;" parent="0k8QkDTSyGL8Smih6Lt8-73" vertex="1">
          <mxGeometry y="86" width="270" height="26" as="geometry" />
        </mxCell>
        <mxCell id="0k8QkDTSyGL8Smih6Lt8-85" value="- sucheAlbum(text : String) : String" style="text;strokeColor=none;fillColor=none;align=left;verticalAlign=top;spacingLeft=4;spacingRight=4;overflow=hidden;rotatable=0;points=[[0,0.5],[1,0.5]];portConstraint=eastwest;whiteSpace=wrap;html=1;" parent="0k8QkDTSyGL8Smih6Lt8-73" vertex="1">
          <mxGeometry y="112" width="270" height="26" as="geometry" />
        </mxCell>
        <mxCell id="0k8QkDTSyGL8Smih6Lt8-87" value="- sucheErscheinungsjahr(zahl : String) : String" style="text;strokeColor=none;fillColor=none;align=left;verticalAlign=top;spacingLeft=4;spacingRight=4;overflow=hidden;rotatable=0;points=[[0,0.5],[1,0.5]];portConstraint=eastwest;whiteSpace=wrap;html=1;" parent="0k8QkDTSyGL8Smih6Lt8-73" vertex="1">
          <mxGeometry y="138" width="270" height="26" as="geometry" />
        </mxCell>
        <mxCell id="0k8QkDTSyGL8Smih6Lt8-88" value="- sucheGenre(text : String) : String" style="text;strokeColor=none;fillColor=none;align=left;verticalAlign=top;spacingLeft=4;spacingRight=4;overflow=hidden;rotatable=0;points=[[0,0.5],[1,0.5]];portConstraint=eastwest;whiteSpace=wrap;html=1;" parent="0k8QkDTSyGL8Smih6Lt8-73" vertex="1">
          <mxGeometry y="164" width="270" height="26" as="geometry" />
        </mxCell>
        <mxCell id="0k8QkDTSyGL8Smih6Lt8-80" value="+ zurückzuHome()" style="text;strokeColor=none;fillColor=none;align=left;verticalAlign=top;spacingLeft=4;spacingRight=4;overflow=hidden;rotatable=0;points=[[0,0.5],[1,0.5]];portConstraint=eastwest;whiteSpace=wrap;html=1;" parent="0k8QkDTSyGL8Smih6Lt8-73" vertex="1">
          <mxGeometry y="190" width="270" height="26" as="geometry" />
        </mxCell>
        <mxCell id="0k8QkDTSyGL8Smih6Lt8-93" value="spielt ab" style="endArrow=none;html=1;rounded=0;exitX=1.01;exitY=0.081;exitDx=0;exitDy=0;entryX=0;entryY=0.5;entryDx=0;entryDy=0;edgeStyle=orthogonalEdgeStyle;exitPerimeter=0;endFill=0;startArrow=diamond;startFill=1;" parent="WIyWlLk6GJQsqaUBKTNV-1" source="ZoeE4J0sLTA_Nj1HPFCk-26" target="ZoeE4J0sLTA_Nj1HPFCk-1" edge="1">
          <mxGeometry width="50" height="50" relative="1" as="geometry">
            <mxPoint x="540" y="530" as="sourcePoint" />
            <mxPoint x="590" y="480" as="targetPoint" />
            <Array as="points">
              <mxPoint x="630" y="675" />
              <mxPoint x="630" y="507" />
            </Array>
          </mxGeometry>
        </mxCell>
        <mxCell id="0k8QkDTSyGL8Smih6Lt8-94" value="" style="endArrow=none;startArrow=diamond;html=1;rounded=0;exitX=1;exitY=0.5;exitDx=0;exitDy=0;entryX=0.25;entryY=0;entryDx=0;entryDy=0;edgeStyle=orthogonalEdgeStyle;startFill=1;endFill=0;" parent="WIyWlLk6GJQsqaUBKTNV-1" source="0k8QkDTSyGL8Smih6Lt8-89" target="zkfFHV4jXpPFQw0GAbJ--6" edge="1">
          <mxGeometry width="50" height="50" relative="1" as="geometry">
            <mxPoint x="540" y="430" as="sourcePoint" />
            <mxPoint x="590" y="380" as="targetPoint" />
            <Array as="points">
              <mxPoint x="420" y="121" />
              <mxPoint x="420" y="250" />
              <mxPoint x="700" y="250" />
            </Array>
          </mxGeometry>
        </mxCell>
        <mxCell id="0k8QkDTSyGL8Smih6Lt8-95" value="" style="endArrow=none;startArrow=diamond;html=1;rounded=0;exitX=1;exitY=0.5;exitDx=0;exitDy=0;entryX=-0.006;entryY=0.062;entryDx=0;entryDy=0;edgeStyle=orthogonalEdgeStyle;entryPerimeter=0;startFill=1;endFill=0;" parent="WIyWlLk6GJQsqaUBKTNV-1" source="zkfFHV4jXpPFQw0GAbJ--1" target="0k8QkDTSyGL8Smih6Lt8-73" edge="1">
          <mxGeometry width="50" height="50" relative="1" as="geometry">
            <mxPoint x="540" y="430" as="sourcePoint" />
            <mxPoint x="590" y="380" as="targetPoint" />
          </mxGeometry>
        </mxCell>
        <mxCell id="ZoeE4J0sLTA_Nj1HPFCk-12" value="Bibliothek" style="swimlane;fontStyle=1;align=center;verticalAlign=top;childLayout=stackLayout;horizontal=1;startSize=26;horizontalStack=0;resizeParent=1;resizeParentMax=0;resizeLast=0;collapsible=1;marginBottom=0;whiteSpace=wrap;html=1;" vertex="1" parent="WIyWlLk6GJQsqaUBKTNV-1">
          <mxGeometry x="390" y="350" width="160" height="160" as="geometry" />
        </mxCell>
        <mxCell id="ZoeE4J0sLTA_Nj1HPFCk-13" value="+ songs : Song[0..*]" style="text;strokeColor=none;fillColor=none;align=left;verticalAlign=top;spacingLeft=4;spacingRight=4;overflow=hidden;rotatable=0;points=[[0,0.5],[1,0.5]];portConstraint=eastwest;whiteSpace=wrap;html=1;" vertex="1" parent="ZoeE4J0sLTA_Nj1HPFCk-12">
          <mxGeometry y="26" width="160" height="26" as="geometry" />
        </mxCell>
        <mxCell id="ZoeE4J0sLTA_Nj1HPFCk-21" value="- bestätigung : String" style="text;align=left;verticalAlign=top;spacingLeft=4;spacingRight=4;overflow=hidden;rotatable=0;points=[[0,0.5],[1,0.5]];portConstraint=eastwest;rounded=0;shadow=0;html=0;" vertex="1" parent="ZoeE4J0sLTA_Nj1HPFCk-12">
          <mxGeometry y="52" width="160" height="26" as="geometry" />
        </mxCell>
        <mxCell id="ZoeE4J0sLTA_Nj1HPFCk-14" value="" style="line;strokeWidth=1;fillColor=none;align=left;verticalAlign=middle;spacingTop=-1;spacingLeft=3;spacingRight=3;rotatable=0;labelPosition=right;points=[];portConstraint=eastwest;strokeColor=inherit;" vertex="1" parent="ZoeE4J0sLTA_Nj1HPFCk-12">
          <mxGeometry y="78" width="160" height="8" as="geometry" />
        </mxCell>
        <mxCell id="ZoeE4J0sLTA_Nj1HPFCk-16" value="+ songerstellen()" style="text;align=left;verticalAlign=top;spacingLeft=4;spacingRight=4;overflow=hidden;rotatable=0;points=[[0,0.5],[1,0.5]];portConstraint=eastwest;" vertex="1" parent="ZoeE4J0sLTA_Nj1HPFCk-12">
          <mxGeometry y="86" width="160" height="24" as="geometry" />
        </mxCell>
        <mxCell id="ZoeE4J0sLTA_Nj1HPFCk-17" value="+ songlöschen(song : Song)" style="text;align=left;verticalAlign=top;spacingLeft=4;spacingRight=4;overflow=hidden;rotatable=0;points=[[0,0.5],[1,0.5]];portConstraint=eastwest;" vertex="1" parent="ZoeE4J0sLTA_Nj1HPFCk-12">
          <mxGeometry y="110" width="160" height="24" as="geometry" />
        </mxCell>
        <mxCell id="ZoeE4J0sLTA_Nj1HPFCk-18" value="+ zurückzuHome()" style="text;strokeColor=none;fillColor=none;align=left;verticalAlign=top;spacingLeft=4;spacingRight=4;overflow=hidden;rotatable=0;points=[[0,0.5],[1,0.5]];portConstraint=eastwest;whiteSpace=wrap;html=1;" vertex="1" parent="ZoeE4J0sLTA_Nj1HPFCk-12">
          <mxGeometry y="134" width="160" height="26" as="geometry" />
        </mxCell>
        <mxCell id="ZoeE4J0sLTA_Nj1HPFCk-20" value="" style="endArrow=diamond;startArrow=none;html=1;rounded=0;entryX=1;entryY=0.5;entryDx=0;entryDy=0;exitX=0.25;exitY=0;exitDx=0;exitDy=0;edgeStyle=orthogonalEdgeStyle;startFill=0;endFill=1;" edge="1" parent="WIyWlLk6GJQsqaUBKTNV-1" source="ZoeE4J0sLTA_Nj1HPFCk-12" target="ZoeE4J0sLTA_Nj1HPFCk-19">
          <mxGeometry width="50" height="50" relative="1" as="geometry">
            <mxPoint x="600" y="350" as="sourcePoint" />
            <mxPoint x="650" y="300" as="targetPoint" />
            <Array as="points">
              <mxPoint x="430" y="280" />
              <mxPoint x="300" y="280" />
              <mxPoint x="300" y="147" />
            </Array>
          </mxGeometry>
        </mxCell>
        <mxCell id="ZoeE4J0sLTA_Nj1HPFCk-26" value="&lt;b&gt;Song&lt;/b&gt;" style="swimlane;fontStyle=0;childLayout=stackLayout;horizontal=1;startSize=26;fillColor=none;horizontalStack=0;resizeParent=1;resizeParentMax=0;resizeLast=0;collapsible=1;marginBottom=0;whiteSpace=wrap;html=1;" vertex="1" parent="WIyWlLk6GJQsqaUBKTNV-1">
          <mxGeometry x="420" y="660" width="160" height="182" as="geometry" />
        </mxCell>
        <mxCell id="zkfFHV4jXpPFQw0GAbJ--18" value="+ titel : String" style="text;align=left;verticalAlign=top;spacingLeft=4;spacingRight=4;overflow=hidden;rotatable=0;points=[[0,0.5],[1,0.5]];portConstraint=eastwest;" parent="ZoeE4J0sLTA_Nj1HPFCk-26" vertex="1">
          <mxGeometry y="26" width="160" height="26" as="geometry" />
        </mxCell>
        <mxCell id="zkfFHV4jXpPFQw0GAbJ--19" value="+ künstler : String" style="text;align=left;verticalAlign=top;spacingLeft=4;spacingRight=4;overflow=hidden;rotatable=0;points=[[0,0.5],[1,0.5]];portConstraint=eastwest;rounded=0;shadow=0;html=0;" parent="ZoeE4J0sLTA_Nj1HPFCk-26" vertex="1">
          <mxGeometry y="52" width="160" height="26" as="geometry" />
        </mxCell>
        <mxCell id="zkfFHV4jXpPFQw0GAbJ--20" value="+ album : String" style="text;align=left;verticalAlign=top;spacingLeft=4;spacingRight=4;overflow=hidden;rotatable=0;points=[[0,0.5],[1,0.5]];portConstraint=eastwest;rounded=0;shadow=0;html=0;" parent="ZoeE4J0sLTA_Nj1HPFCk-26" vertex="1">
          <mxGeometry y="78" width="160" height="26" as="geometry" />
        </mxCell>
        <mxCell id="zkfFHV4jXpPFQw0GAbJ--21" value="+ erscheinungsjahr : Stirng" style="text;align=left;verticalAlign=top;spacingLeft=4;spacingRight=4;overflow=hidden;rotatable=0;points=[[0,0.5],[1,0.5]];portConstraint=eastwest;rounded=0;shadow=0;html=0;" parent="ZoeE4J0sLTA_Nj1HPFCk-26" vertex="1">
          <mxGeometry y="104" width="160" height="26" as="geometry" />
        </mxCell>
        <mxCell id="zkfFHV4jXpPFQw0GAbJ--22" value="+ genre : String" style="text;align=left;verticalAlign=top;spacingLeft=4;spacingRight=4;overflow=hidden;rotatable=0;points=[[0,0.5],[1,0.5]];portConstraint=eastwest;rounded=0;shadow=0;html=0;" parent="ZoeE4J0sLTA_Nj1HPFCk-26" vertex="1">
          <mxGeometry y="130" width="160" height="26" as="geometry" />
        </mxCell>
        <mxCell id="ZoeE4J0sLTA_Nj1HPFCk-10" value="+ songtext : String" style="text;align=left;verticalAlign=top;spacingLeft=4;spacingRight=4;overflow=hidden;rotatable=0;points=[[0,0.5],[1,0.5]];portConstraint=eastwest;rounded=0;shadow=0;html=0;" vertex="1" parent="ZoeE4J0sLTA_Nj1HPFCk-26">
          <mxGeometry y="156" width="160" height="26" as="geometry" />
        </mxCell>
        <mxCell id="ZoeE4J0sLTA_Nj1HPFCk-35" value="" style="endArrow=diamond;startArrow=none;html=1;rounded=0;entryX=0;entryY=0.5;entryDx=0;entryDy=0;exitX=0.5;exitY=0;exitDx=0;exitDy=0;edgeStyle=orthogonalEdgeStyle;startFill=0;endFill=0;" edge="1" parent="WIyWlLk6GJQsqaUBKTNV-1" source="ZoeE4J0sLTA_Nj1HPFCk-12" target="0k8QkDTSyGL8Smih6Lt8-88">
          <mxGeometry width="50" height="50" relative="1" as="geometry">
            <mxPoint x="570" y="380" as="sourcePoint" />
            <mxPoint x="620" y="330" as="targetPoint" />
          </mxGeometry>
        </mxCell>
        <mxCell id="ZoeE4J0sLTA_Nj1HPFCk-36" value="" style="endArrow=diamond;html=1;rounded=0;entryX=0;entryY=0.5;entryDx=0;entryDy=0;exitX=0.5;exitY=0;exitDx=0;exitDy=0;edgeStyle=orthogonalEdgeStyle;endFill=0;verticalAlign=top;" edge="1" parent="WIyWlLk6GJQsqaUBKTNV-1" source="0k8QkDTSyGL8Smih6Lt8-40" target="zkfFHV4jXpPFQw0GAbJ--14">
          <mxGeometry width="50" height="50" relative="1" as="geometry">
            <mxPoint x="570" y="680" as="sourcePoint" />
            <mxPoint x="620" y="630" as="targetPoint" />
            <Array as="points">
              <mxPoint x="135" y="700" />
              <mxPoint x="20" y="700" />
              <mxPoint x="20" y="408" />
            </Array>
          </mxGeometry>
        </mxCell>
        <mxCell id="ZoeE4J0sLTA_Nj1HPFCk-37" value="" style="endArrow=diamond;html=1;rounded=0;exitX=0.01;exitY=0.077;exitDx=0;exitDy=0;exitPerimeter=0;entryX=1;entryY=0.5;entryDx=0;entryDy=0;edgeStyle=orthogonalEdgeStyle;endFill=0;" edge="1" parent="WIyWlLk6GJQsqaUBKTNV-1" source="ZoeE4J0sLTA_Nj1HPFCk-26" target="0k8QkDTSyGL8Smih6Lt8-45">
          <mxGeometry width="50" height="50" relative="1" as="geometry">
            <mxPoint x="570" y="680" as="sourcePoint" />
            <mxPoint x="620" y="630" as="targetPoint" />
          </mxGeometry>
        </mxCell>
        <mxCell id="ZoeE4J0sLTA_Nj1HPFCk-38" value="" style="endArrow=diamond;html=1;rounded=0;entryX=1;entryY=0.5;entryDx=0;entryDy=0;exitX=0.75;exitY=0;exitDx=0;exitDy=0;edgeStyle=orthogonalEdgeStyle;endFill=1;" edge="1" parent="WIyWlLk6GJQsqaUBKTNV-1" source="ZoeE4J0sLTA_Nj1HPFCk-26" target="ZoeE4J0sLTA_Nj1HPFCk-13">
          <mxGeometry width="50" height="50" relative="1" as="geometry">
            <mxPoint x="570" y="680" as="sourcePoint" />
            <mxPoint x="620" y="630" as="targetPoint" />
            <Array as="points">
              <mxPoint x="540" y="531" />
              <mxPoint x="580" y="531" />
              <mxPoint x="580" y="389" />
            </Array>
          </mxGeometry>
        </mxCell>
      </root>
    </mxGraphModel>
  </diagram>
</mxfile>
